/* XPM */
static char * N:\uib\oertel\gitwork\lazarus\opsi_misc\opsisetupdetector\image\analyze5_xpm[] = {
"42 48 533 2",
"  	c None",
". 	c #8E8E8E",
"+ 	c #868686",
"@ 	c #727272",
"# 	c #747474",
"$ 	c #757575",
"% 	c #767676",
"& 	c #8B8B8B",
"* 	c #B3B3B3",
"= 	c #CECECE",
"- 	c #C3C3C3",
"; 	c #AAA9A9",
"> 	c #8C8B8C",
", 	c #1F1F1F",
"' 	c #D6D6D6",
") 	c #EEEEF7",
"! 	c #B4B4D5",
"~ 	c #B4B4D6",
"{ 	c #B3B3D5",
"] 	c #DEE0EE",
"^ 	c #ECECEB",
"/ 	c #BDBCBC",
"( 	c #949493",
"_ 	c #191919",
": 	c #D5D5D5",
"< 	c #C0C0DF",
"[ 	c #00007F",
"} 	c #010577",
"| 	c #010478",
"1 	c #010578",
"2 	c #000578",
"3 	c #050578",
"4 	c #040578",
"5 	c #00007A",
"6 	c #9999CB",
"7 	c #EEEEEB",
"8 	c #BCBCBC",
"9 	c #939393",
"0 	c #000079",
"a 	c #69D3FE",
"b 	c #63C7F9",
"c 	c #69C2F9",
"d 	c #4BD4F9",
"e 	c #22F2F9",
"f 	c #F0F1F8",
"g 	c #11F2F9",
"h 	c #C9F1F8",
"i 	c #68F3F9",
"j 	c #12ECF9",
"k 	c #65C5F9",
"l 	c #7AE3FF",
"m 	c #12258D",
"n 	c #6CD9FF",
"o 	c #6AC9FF",
"p 	c #3AEEFE",
"q 	c #6BFAFF",
"r 	c #C5FFFF",
"s 	c #2CFFFF",
"t 	c #CEFEFF",
"u 	c #4EFFFF",
"v 	c #4EE5FE",
"w 	c #60D0FE",
"x 	c #73D4FF",
"y 	c #19B0DD",
"z 	c #021B86",
"A 	c #9A99CB",
"B 	c #6ED6FF",
"C 	c #3FEFFF",
"D 	c #8FFBFE",
"E 	c #87FFFF",
"F 	c #62FFFF",
"G 	c #A9FFFF",
"H 	c #63FFFF",
"I 	c #54E5FF",
"J 	c #62D5FF",
"K 	c #5BC6F7",
"L 	c #2AA8DC",
"M 	c #03AAD6",
"N 	c #001A85",
"O 	c #000078",
"P 	c #5CE7FF",
"Q 	c #43DAD9",
"R 	c #547675",
"S 	c #3E6D6D",
"T 	c #094A4A",
"U 	c #2C2E2E",
"V 	c #062F2F",
"W 	c #14242F",
"X 	c #11212B",
"Y 	c #2A576B",
"Z 	c #003F54",
"` 	c #00809F",
" .	c #001D89",
"..	c #C1C1E0",
"+.	c #02007B",
"@.	c #26FFFF",
"#.	c #515C5B",
"$.	c #000000",
"%.	c #00238B",
"&.	c #9C9CCE",
"*.	c #F0F0ED",
"=.	c #949394",
"-.	c #DCDCDC",
";.	c #9898A6",
">.	c #000013",
",.	c #0B1616",
"'.	c #040707",
").	c #000209",
"!.	c #15151C",
"~.	c #686868",
"{.	c #BFBFBF",
"].	c #8F8E8E",
"^.	c #838383",
"/.	c #7D7D7D",
"(.	c #7E7E7E",
"_.	c #969596",
":.	c #151515",
"<.	c #868787",
"[.	c #303030",
"}.	c #000101",
"|.	c #1E2C33",
"1.	c #011C26",
"2.	c #001C26",
"3.	c #001016",
"4.	c #121212",
"5.	c #BCBBBB",
"6.	c #959595",
"7.	c #8A8A8A",
"8.	c #D7D6D6",
"9.	c #D1D1D1",
"0.	c #CDCDCD",
"a.	c #2A2A2A",
"b.	c #555555",
"c.	c #0A0A0A",
"d.	c #60EDFF",
"e.	c #68D1FF",
"f.	c #2BAFE3",
"g.	c #0299CF",
"h.	c #009ACF",
"i.	c #009AD0",
"j.	c #0C9DDD",
"k.	c #02060E",
"l.	c #000001",
"m.	c #797878",
"n.	c #C6C6C6",
"o.	c #C4C4C4",
"p.	c #BEBFBE",
"q.	c #9C9B9B",
"r.	c #002A29",
"s.	c #265365",
"t.	c #58C3F6",
"u.	c #41B8EA",
"v.	c #0096CB",
"w.	c #0098CC",
"x.	c #0B8ED5",
"y.	c #1A7FE4",
"z.	c #3568FF",
"A.	c #1D388A",
"B.	c #030712",
"C.	c #101010",
"D.	c #080808",
"E.	c #878787",
"F.	c #595959",
"G.	c #575757",
"H.	c #585857",
"I.	c #535354",
"J.	c #484848",
"K.	c #0C0C0C",
"L.	c #000012",
"M.	c #00C8D6",
"N.	c #65BBF7",
"O.	c #5CB8EF",
"P.	c #38A3DB",
"Q.	c #0089C1",
"R.	c #038AC3",
"S.	c #1C6CDB",
"T.	c #305AF1",
"U.	c #2E5CEF",
"V.	c #3467FB",
"W.	c #081196",
"X.	c #1A1A2E",
"Y.	c #878686",
"Z.	c #777777",
"`.	c #5B5B5B",
" +	c #5F5F5F",
".+	c #5E5E5E",
"++	c #626262",
"@+	c #353535",
"#+	c #1B1A1A",
"$+	c #B4B2B2",
"%+	c #000071",
"&+	c #000178",
"*+	c #000076",
"=+	c #9F9FD3",
"-+	c #7F7F7F",
";+	c #808080",
">+	c #5B5B5C",
",+	c #636363",
"'+	c #4E4E4E",
")+	c #8E8B8B",
"!+	c #222121",
"~+	c #010101",
"{+	c #626261",
"]+	c #D0D0E6",
"^+	c #D1D2EA",
"/+	c #D2D2EA",
"(+	c #D1D1E9",
"_+	c #F0EFF9",
":+	c #878786",
"<+	c #848484",
"[+	c #A2A2A2",
"}+	c #CCCCCC",
"|+	c #B7B7B7",
"1+	c #535353",
"2+	c #262626",
"3+	c #5B5A5A",
"4+	c #817F7F",
"5+	c #A29E9E",
"6+	c #131313",
"7+	c #1E1E1E",
"8+	c #BDBDBD",
"9+	c #DDDDDD",
"0+	c #C9C9C9",
"a+	c #9F9F9F",
"b+	c #CBCBCB",
"c+	c #B4B3B3",
"d+	c #353435",
"e+	c #3A393A",
"f+	c #9C9A9A",
"g+	c #A3A0A0",
"h+	c #A29F9F",
"i+	c #161515",
"j+	c #252525",
"k+	c #818181",
"l+	c #99999A",
"m+	c #848383",
"n+	c #585858",
"o+	c #595858",
"p+	c #4C4C4C",
"q+	c #030303",
"r+	c #C2C1C0",
"s+	c #A4A1A0",
"t+	c #A09D9D",
"u+	c #0B0B0B",
"v+	c #020202",
"w+	c #898989",
"x+	c #797877",
"y+	c #B6B4B4",
"z+	c #909090",
"A+	c #919191",
"B+	c #3A3A3A",
"C+	c #999999",
"D+	c #EFEFEF",
"E+	c #EBEBEB",
"F+	c #BFBEBF",
"G+	c #979797",
"H+	c #DAD9DA",
"I+	c #959393",
"J+	c #919194",
"K+	c #939395",
"L+	c #87868A",
"M+	c #767679",
"N+	c #EEEEEE",
"O+	c #F1F0F0",
"P+	c #F6F6F6",
"Q+	c #606060",
"R+	c #9A9A9A",
"S+	c #FFFFFF",
"T+	c #FEFEFE",
"U+	c #707070",
"V+	c #A5AFAA",
"W+	c #75AF96",
"X+	c #D3D09B",
"Y+	c #B4B478",
"Z+	c #B5B67A",
"`+	c #AFAF74",
" @	c #A6A66D",
".@	c #9A999A",
"+@	c #858585",
"@@	c #A4A4A4",
"#@	c #B9B9B9",
"$@	c #BABABA",
"%@	c #5A5A5B",
"&@	c #A19E9E",
"*@	c #060606",
"=@	c #363B3A",
"-@	c #719589",
";@	c #5ECF99",
">@	c #FFFF9D",
",@	c #C9C961",
"'@	c #CDCD66",
")@	c #CBCB68",
"!@	c #515151",
"~@	c #4D4E4E",
"{@	c #626161",
"]@	c #706F6F",
"^@	c #666363",
"/@	c #8C8B8B",
"(@	c #A09E9E",
"_@	c #141D1D",
":@	c #5D9992",
"<@	c #60C599",
"[@	c #D1D166",
"}@	c #CCCC65",
"|@	c #CACA68",
"1@	c #B2B1B1",
"2@	c #AEABAB",
"3@	c #686767",
"4@	c #141414",
"5@	c #4B4B4B",
"6@	c #B5B3B3",
"7@	c #939191",
"8@	c #0F1010",
"9@	c #245468",
"0@	c #5B8F98",
"a@	c #FFFF9B",
"b@	c #D3D26E",
"c@	c #CCCC66",
"d@	c #CACA6A",
"e@	c #B5B4B5",
"f@	c #A4A0A0",
"g@	c #BEBDBD",
"h@	c #2B2A2B",
"i@	c #CDCECE",
"j@	c #D3D3D4",
"k@	c #969696",
"l@	c #A09D9C",
"m@	c #969495",
"n@	c #333131",
"o@	c #0C4040",
"p@	c #050505",
"q@	c #659496",
"r@	c #5ECD9C",
"s@	c #FFFF9A",
"t@	c #D6D56B",
"u@	c #C1C184",
"v@	c #B4B3B0",
"w@	c #B5B4B4",
"x@	c #BDBBBC",
"y@	c #DEDEDE",
"z@	c #363536",
"A@	c #141415",
"B@	c #131414",
"C@	c #A9A7A8",
"D@	c #929191",
"E@	c #767576",
"F@	c #B2B2B2",
"G@	c #4FB9A2",
"H@	c #17303C",
"I@	c #65B29B",
"J@	c #A2C19D",
"K@	c #C6CA71",
"L@	c #C3C386",
"M@	c #B3B2B2",
"N@	c #A8A6A6",
"O@	c #B1AFB0",
"P@	c #DDDCDC",
"Q@	c #E3E3E3",
"R@	c #D4D3D4",
"S@	c #9D9D9D",
"T@	c #F0F0F0",
"U@	c #FAFAFA",
"V@	c #F9FAFA",
"W@	c #C5C5C5",
"X@	c #AEACAC",
"Y@	c #8D8D8D",
"Z@	c #767575",
"`@	c #6D6D6D",
" #	c #ECE6E9",
".#	c #8FE0B6",
"+#	c #1A2220",
"@#	c #416C6F",
"##	c #989E5C",
"$#	c #AAA97E",
"%#	c #9E9B9B",
"&#	c #CAC9C9",
"*#	c #CFCFCF",
"=#	c #DFDFDF",
"-#	c #070707",
";#	c #FDFDFD",
">#	c #ECECEC",
",#	c #E7E7E7",
"'#	c #B1B1B1",
")#	c #969595",
"!#	c #A19F9F",
"~#	c #828181",
"{#	c #E8E8E8",
"]#	c #E4DEE1",
"^#	c #73B38F",
"/#	c #192921",
"(#	c #343436",
"_#	c #ABA8A9",
":#	c #E1E1E1",
"<#	c #CCCBCB",
"[#	c #333333",
"}#	c #09090A",
"|#	c #919090",
"1#	c #D1D0D0",
"2#	c #D3D3D3",
"3#	c #B9B7B7",
"4#	c #868586",
"5#	c #717172",
"6#	c #646464",
"7#	c #929292",
"8#	c #8F8F8F",
"9#	c #988E92",
"0#	c #7A7276",
"a#	c #9B9B9B",
"b#	c #C7C7C7",
"c#	c #E9E9E9",
"d#	c #B0B0B0",
"e#	c #949494",
"f#	c #838282",
"g#	c #696969",
"h#	c #D4D4D4",
"i#	c #CECDCE",
"j#	c #9F9F9E",
"k#	c #E3E2E3",
"l#	c #EAEAEA",
"m#	c #ABAAAA",
"n#	c #918F90",
"o#	c #787878",
"p#	c #D3D2D3",
"q#	c #B9B8B8",
"r#	c #BBBABA",
"s#	c #B6B5B4",
"t#	c #ABABAB",
"u#	c #838283",
"v#	c #E0E0E0",
"w#	c #C5C4C4",
"x#	c #AEACAD",
"y#	c #767677",
"z#	c #6B6A6A",
"A#	c #B1B0B0",
"B#	c #CDCEC2",
"C#	c #373329",
"D#	c #091B1A",
"E#	c #091C1A",
"F#	c #0F1914",
"G#	c #0F0F0F",
"H#	c #232323",
"I#	c #434243",
"J#	c #B7B6B6",
"K#	c #C0C0C2",
"L#	c #CCCC96",
"M#	c #D6D39E",
"N#	c #2BA79D",
"O#	c #44C5B4",
"P#	c #92F2C7",
"Q#	c #EAEFED",
"R#	c #EEEFF0",
"S#	c #FAF9FA",
"T#	c #3B3B3B",
"U#	c #D0D0D0",
"V#	c #D3D2D2",
"W#	c #8C8C8B",
"X#	c #484748",
"Y#	c #0E0E0F",
"Z#	c #767777",
"`#	c #C1C1C1",
" $	c #BFBFC2",
".$	c #C9C997",
"+$	c #FFFF99",
"@$	c #32A9C8",
"#$	c #0094B8",
"$$	c #029192",
"%$	c #95FFCA",
"&$	c #87FFC5",
"*$	c #EDFEF5",
"=$	c #CDCCCC",
"-$	c #F0F1F0",
";$	c #B0B0B1",
">$	c #939293",
",$	c #C2C2C2",
"'$	c #C0C0C0",
")$	c #C0C0C1",
"!$	c #5BD6C1",
"~$	c #1EB9CE",
"{$	c #0199CE",
"]$	c #00888C",
"^$	c #9BF9CD",
"/$	c #94FFCB",
"($	c #93FFCA",
"_$	c #82D0B0",
":$	c #333233",
"<$	c #F1F1F1",
"[$	c #272727",
"}$	c #C2C2BA",
"|$	c #C9C9A3",
"1$	c #C9C998",
"2$	c #FFFF98",
"3$	c #B4F4C5",
"4$	c #76DCCB",
"5$	c #24BFCC",
"6$	c #0096C4",
"7$	c #24ABA1",
"8$	c #91F3CA",
"9$	c #68A087",
"0$	c #475752",
"a$	c #696868",
"b$	c #989998",
"c$	c #989797",
"d$	c #9E9D9D",
"e$	c #5D5D5D",
"f$	c #A6A5A5",
"g$	c #A3A3A2",
"h$	c #ADACA2",
"i$	c #CCCC99",
"j$	c #C9C999",
"k$	c #D9FFC6",
"l$	c #8DE8CC",
"m$	c #33CDCC",
"n$	c #009CD7",
"o$	c #0A767B",
"p$	c #71B09C",
"q$	c #547667",
"r$	c #0A0809",
"s$	c #77776C",
"t$	c #CDCC9D",
"u$	c #CACA9C",
"v$	c #FFFF95",
"w$	c #D4FBC7",
"x$	c #90E9CB",
"y$	c #2BD0D6",
"z$	c #00A8E3",
"A$	c #343332",
"B$	c #59595C",
"C$	c #59595B",
"D$	c #56565C",
"E$	c #343134",
"F$	c #2E282A",
"G$	c #332928",
"H$	c #352C2A",
"                                                                                    ",
"                                                                                    ",
"                                                                                    ",
"                              . + @ # # # # # # # # # # # # # # # # $ %             ",
"                              & * = = = = = = = = = = = = = = = = - ; > ,           ",
"                              + ' ) ! ~ ~ ~ ~ ~ ~ ~ ~ ~ ~ ~ ~ { ] ^ / ( _           ",
"                              + : < [ } | | 1 2 3 2 4 1 2 | } 5 6 7 8 9 _           ",
"                              + : < 0 a b c d e f g h i j k l m 6 7 8 9 _           ",
"                              + : < 0 n o p q r s t u v w x y z A 7 8 9 _           ",
"                              + : < 0 B C D E F G H I J K L M N A 7 8 9 _           ",
"                              + : < O P Q R S T U V W X Y Z `  .A 7 8 9 _           ",
"                              + : ..+.@.#.$.$.$.$.$.$.$.$.$.$.%.&.*.8 9 _           ",
"                              =.-.;.>.,.'.$.$.$.$.$.$.$.$.$.$.).!.~.{.9 _           ",
"                ].^./././.(._.:.<.[.$.$.$.}.$.$.|.1.2.3.$.$.$.$.$.4.5.6._           ",
"                7.8.9.9.9.0.a.b.c.$.$.$.$.$.d.e.f.g.h.i.j.k.l.$.$.$.$./._           ",
"              (.m.n.o.o.p.q.$.$.$.$.$.r.s.J t.u.v.w.w.x.y.z.A.B.$.$.$.C.D.          ",
"            E.(.F.G.H.I.J.K.$.$.$.$.L.M.N.O.P.Q.R.R.R.S.T.U.V.W.X.$.$.$.$.          ",
"          Y.Z.`. +.+++@+#+$+$.$.$.$.%+&+O O 0 0 0 0 0 0 0 O 0 *+=+$.$.$.$.          ",
"+ ^.-+-+-+;+-+Z.>+,+_ '+)+!+~+$.$.{+]+^+^+^+^+^+^+^+^+^+^+^+/+(+_+:+$.$.$.$.        ",
"<+[+= }+0.}+0.|+1+2+3+4+5+6+$.$.7+8+9+9+9+9+9+9+9+9+9+9+9+9+9+9+9+0+$.$.$.$.        ",
"7.a+}+b+b+b+b+c+d+e+f+g+h+i+$.$.j++ k+k+k+k+k+k+k+k+k+k+k+k+k+k+k+7.$.$.$.$.        ",
"l+m+b.n+n+n+o+p+q+r+s+g+t+$.$.$.c.u+u+u+u+u+u+u+u+u+u+u+u+u+u+u+u+u+D.$.$.$.v+      ",
"    w+w+7.7.7.x+q+y+g+g+t+$.$.$.`.z+z+z+z+z+z+z+z+z+A+A+A+A+A+A+A+6.B+$.$.$.~+      ",
"    C+D+E+E+E+F+$.y+g+g+t+$.$.$.G+H+I+J+K+K+L+M+~.N+O+D+N+N+N+N+N+P+Q+$.$.$.~+      ",
"    R+S+T+T+S+b+$.y+g+g+t+$.$.$.U+V+W+X+Y+Z+`+ @.@+@<.@@#@$@$@$@$@b+%@$.$.$.~+      ",
"    R+S+T+T+S+b+$.y+g+g+&@*@$.$.=@-@;@>@,@'@'@)@F+!@~@{@]@^@^@^@^@/@2+$.$.$.~+      ",
"    R+S+T+T+S+b+$.y+(@h+&@6+$.$._@:@<@>@[@}@'@|@1@5.2@3@[.$.4@4@4@5@$.$.$.$.$.      ",
"    R+S+T+T+S+b+$.6@+ 7@C+8@$.$.$.9@0@a@>@b@c@d@e@&@f@g@$@h@i@j@j@k@$.$.$.$.        ",
"    R+S+T+T+S+b+$.k@l@m@^.n@o@$.$.p@q@r@s@t@u@v@w@(@x@y@0.z@A@B@4@D.$.$.$.          ",
"    R+S+S+T+S+}+$.C@D@k+E@F@G@$.$.$.H@I@J@K@L@M@N@O@P@Q@R@S@2+  $.$.$.$.$.          ",
"    R+S+T@U@V@W@$.X@Y@Z@`@ #.#v+$.$.$.+#@###$#1@%#&#N+y@*#=#e+-#$.$.$.$.$.$.        ",
"    R+;#0+>#,#'#$.)#!#~#`@{#]#^#/#$.$.$.$.$.(#q._#S+:#<#Z.[#}#$.$.$.$.$.$.$.$.$.    ",
"    |#1#S+2#9+= $.3#4#5#6#7#8#9#0#$.$.$.$.$.$.$.$.$.$.$.$.$.$.$.$.$.$.$.$.$.$.$.    ",
"    a#S+b#D+c#d#$.e#5+f#g#h#i#i#8 j#v+$.$.$.$.$.$.$.$.$.$.$.$.$.$.$.$.$.$.$.$.$.$.  ",
"    e#k#l#9+:#- $.m#n#o#g#p#q#r#s#c+t#u#$.$.$.$.$.$.$.$.$.$.$.:.$.$.$.$.$.$.$.$.$.$.",
"    9 =#D+-.v#w#$.x#].y#z#0.A#M@M@* e@B#C#D#E#F#C.C.C.G#j+H#I#    $.$.$.$.$.$.$.$.$.",
"    a#S+0+D+c#d#$.6.!#~#3@J#M@M@M@w@K#L#M#N#O#P#Q#Q#R#N+S+S#T#      $.$.$.$.$.$.$.$.",
"    z+U#S+V#9+= $.3#W#X#Y#Z#$@1@8 `# $.$+$@$#$$$%$&$*$S+=$2+$.      $.$.$.$.$.$.$.$.",
"    a#S+b#-$c#;$$.>$4@$.  `.5.,$'$)$K#.$+$!$~${$]$^$/$($_$:$            $.$.$.$.$.$.",
"    e#=#<$9+v#n.$.[$        @ ,$)$}$|$1$2$3$4$5$6$7$8$9$0$                $.$.$.    ",
"    a$b$t#c$d$& $.~+        e$f$g$h$i$j$+$k$l$m$n$o$p$q$:$                          ",
"  r$$.$.$.$.$.$.$.            .+ +s$t$u$v$w$x$y$z$A$:$                              ",
"                                    B$C$D$E$F$G$H$                                  ",
"                                                                                    ",
"                                                                                    ",
"                                                                                    ",
"                                                                                    ",
"                                                                                    "};
