/* XPM */
static char * N:\uib\oertel\gitwork\lazarus\opsi_misc\opsisetupdetector\image\analyze4_xpm[] = {
"29 32 322 2",
"  	c None",
". 	c #838383",
"+ 	c #7B7B7C",
"@ 	c #7B7A7A",
"# 	c #7A7A7A",
"$ 	c #D3D3D3",
"% 	c #D1D1E9",
"& 	c #D4D4E9",
"* 	c #D4D3E9",
"= 	c #D4D4EA",
"- 	c #F4F4F9",
"; 	c #CCCBCB",
"> 	c #A1A1A1",
", 	c #000000",
"' 	c #D7D6D6",
") 	c #000069",
"! 	c #183BA5",
"~ 	c #1634A1",
"{ 	c #0D3AA1",
"] 	c #2344A2",
"^ 	c #0943A2",
"/ 	c #3843A1",
"( 	c #0045A1",
"_ 	c #1535A1",
": 	c #0D2091",
"< 	c #BAB9D9",
"[ 	c #CCCCCC",
"} 	c #A0A0A0",
"| 	c #000073",
"1 	c #75ECFF",
"2 	c #70D0FF",
"3 	c #67FAFF",
"4 	c #85FFFF",
"5 	c #88FFFF",
"6 	c #7EFFFF",
"7 	c #42EBFF",
"8 	c #67D3FF",
"9 	c #2175BC",
"0 	c #BCBAD8",
"a 	c #78DDFF",
"b 	c #44F6FF",
"c 	c #7EEFF0",
"d 	c #82DEDE",
"e 	c #65DFDE",
"f 	c #4EC9DD",
"g 	c #5DBEEB",
"h 	c #21AADC",
"i 	c #0067B5",
"j 	c #BDBAD9",
"k 	c #000078",
"l 	c #3FFFFF",
"m 	c #0D2222",
"n 	c #000101",
"o 	c #000B0F",
"p 	c #002E76",
"q 	c #C6C4E7",
"r 	c #CECECD",
"s 	c #D3D2D2",
"t 	c #000018",
"u 	c #040000",
"v 	c #252524",
"w 	c #B4B4B4",
"x 	c #888888",
"y 	c #BABABA",
"z 	c #B3B3B3",
"A 	c #B5B4B5",
"B 	c #9B9B9B",
"C 	c #454545",
"D 	c #0A0A0A",
"E 	c #000201",
"F 	c #397C93",
"G 	c #3EA9C8",
"H 	c #088EBD",
"I 	c #008AB9",
"J 	c #03587C",
"K 	c #040814",
"L 	c #232323",
"M 	c #8A8A8A",
"N 	c #707071",
"O 	c #9C9C9C",
"P 	c #9E9E9E",
"Q 	c #535353",
"R 	c #080909",
"S 	c #016F64",
"T 	c #51D3E1",
"U 	c #55CDF9",
"V 	c #0BA7D6",
"W 	c #01A5D1",
"X 	c #00A6D0",
"Y 	c #2580ED",
"Z 	c #3E7BFF",
"` 	c #162B6B",
" .	c #292929",
"..	c #606060",
"+.	c #6B6B6B",
"@.	c #131313",
"#.	c #767575",
"$.	c #001583",
"%.	c #000E80",
"&.	c #000A7E",
"*.	c #00077B",
"=.	c #00077A",
"-.	c #000080",
";.	c #000079",
">.	c #7C7C98",
",.	c #868686",
"'.	c #8D8D8D",
").	c #8E8E8E",
"!.	c #929292",
"~.	c #5A5A5A",
"{.	c #111111",
"].	c #AEABAB",
"^.	c #090808",
"/.	c #0B0B0B",
"(.	c #F9F9FA",
"_.	c #FFFFFF",
":.	c #373736",
"<.	c #D0D0D0",
"[.	c #D7D7D7",
"}.	c #DCDCDC",
"|.	c #6D6C6D",
"1.	c #2D2B2B",
"2.	c #ADAAAA",
"3.	c #A19D9D",
"4.	c #555555",
"5.	c #8F8F8F",
"6.	c #5F5F5F",
"7.	c #686868",
"8.	c #626262",
"9.	c #636262",
"0.	c #1C1C1C",
"a.	c #B6B4B4",
"b.	c #A3A0A0",
"c.	c #979494",
"d.	c #1A1A1A",
"e.	c #2F2F2F",
"f.	c #303030",
"g.	c #2D2D2D",
"h.	c #2C2C2C",
"i.	c #222222",
"j.	c #848484",
"k.	c #D8D8D8",
"l.	c #CFD0D0",
"m.	c #3B3B3B",
"n.	c #AFADAD",
"o.	c #989595",
"p.	c #808080",
"q.	c #8F8C8D",
"r.	c #929195",
"s.	c #939296",
"t.	c #8B8B8E",
"u.	c #7F7F7F",
"v.	c #CECECE",
"w.	c #DADADA",
"x.	c #A3A3A3",
"y.	c #FEFEFE",
"z.	c #575656",
"A.	c #6FC398",
"B.	c #E3E09C",
"C.	c #C1C170",
"D.	c #BEBE6C",
"E.	c #A9A99D",
"F.	c #646464",
"G.	c #545555",
"H.	c #A4A3A3",
"I.	c #999A9A",
"J.	c #A6A3A3",
"K.	c #9F9C9C",
"L.	c #3A4F4F",
"M.	c #66D69A",
"N.	c #FFFF9F",
"O.	c #C6C664",
"P.	c #CCCC66",
"Q.	c #B9B99F",
"R.	c #242525",
"S.	c #0D0D0D",
"T.	c #070606",
"U.	c #040404",
"V.	c #676767",
"W.	c #ABAAAA",
"X.	c #9B9898",
"Y.	c #0A0808",
"Z.	c #000002",
"`.	c #698B8E",
" +	c #E6F89A",
".+	c #FFFFA3",
"++	c #C9C96B",
"@+	c #B8B8A3",
"#+	c #A2A0A0",
"$+	c #D9D7D7",
"%+	c #474647",
"&+	c #D4D5D5",
"*+	c #D3D4D4",
"=+	c #464646",
"-+	c #9B9A9A",
";+	c #9A9898",
">+	c #747474",
",+	c #8BACA6",
"'+	c #0F1415",
")+	c #54BA9F",
"!+	c #AAC59B",
"~+	c #C1C085",
"{+	c #AEACAE",
"]+	c #AEADAC",
"^+	c #D6D6D6",
"/+	c #E9E8E8",
"(+	c #6E6C6D",
"_+	c #080808",
":+	c #FBFBFB",
"<+	c #444444",
"[+	c #9A9999",
"}+	c #9B9999",
"|+	c #656565",
"1+	c #EDF1F0",
"2+	c #151B18",
"3+	c #181E1D",
"4+	c #2E5356",
"5+	c #8E8E73",
"6+	c #AFAAAB",
"7+	c #DFDFDF",
"8+	c #F6F6F6",
"9+	c #D4D4D4",
"0+	c #A7A7A7",
"a+	c #121212",
"b+	c #828282",
"c+	c #D9D9D9",
"d+	c #EBEBEB",
"e+	c #B0AFAF",
"f+	c #616162",
"g+	c #9A9A9A",
"h+	c #A4ABA8",
"i+	c #2C2729",
"j+	c #0E0E0D",
"k+	c #1F1E1E",
"l+	c #2C2D2D",
"m+	c #1D1E1D",
"n+	c #818181",
"o+	c #F3F3F3",
"p+	c #444443",
"q+	c #A7A4A5",
"r+	c #636363",
"s+	c #D7D6D7",
"t+	c #D2D1D2",
"u+	c #C8C8C8",
"v+	c #5B5A5A",
"w+	c #111110",
"x+	c #E3E3E3",
"y+	c #E6E7E6",
"z+	c #E1E1E1",
"A+	c #A9A8A8",
"B+	c #8B8B8B",
"C+	c #C4C4C3",
"D+	c #B1B0B0",
"E+	c #B3B1B2",
"F+	c #BABAB9",
"G+	c #D5D5C8",
"H+	c #484630",
"I+	c #0D2724",
"J+	c #272627",
"K+	c #DDDCDC",
"L+	c #EAEAEA",
"M+	c #9C9B9B",
"N+	c #9F9D9E",
"O+	c #3F403F",
"P+	c #A7A5A6",
"Q+	c #B2B2B1",
"R+	c #B7B6B6",
"S+	c #C1C1C2",
"T+	c #CBCB94",
"U+	c #F0E89E",
"V+	c #2FBBBC",
"W+	c #DBFFF4",
"X+	c #E5FFFA",
"Y+	c #A4A4A4",
"Z+	c #191919",
"`+	c #F4F4F4",
" @	c #DBDBDB",
".@	c #ECEDED",
"+@	c #A5A3A3",
"@@	c #313131",
"#@	c #7D7D7C",
"$@	c #B8B8B8",
"%@	c #BFBFBF",
"&@	c #C0C0C2",
"*@	c #C9C995",
"=@	c #FFFF97",
"-@	c #0AA9C4",
";@	c #30BAAD",
">@	c #8BFAC8",
",@	c #BCFFDD",
"'@	c #BCF6DD",
")@	c #302F30",
"!@	c #858585",
"~@	c #EEEDED",
"{@	c #F2F2F2",
"]@	c #4B4B4B",
"^@	c #252525",
"/@	c #8F8E8E",
"(@	c #C3C3C3",
"_@	c #C7C7A2",
":@	c #C8C898",
"<@	c #75DBCA",
"[@	c #029EC0",
"}@	c #1EADA8",
"|@	c #9AFFD5",
"1@	c #486053",
"2@	c #0C0B0B",
"3@	c #141414",
"4@	c #060606",
"5@	c #656465",
"6@	c #E4E4A4",
"7@	c #CECE9F",
"8@	c #FFFF95",
"9@	c #8FF0D4",
"0@	c #07AAD2",
"a@	c #25474F",
"b@	c #383E3A",
"c@	c #515157",
"d@	c #525256",
"e@	c #4D4D59",
"f@	c #281C1E",
"g@	c #372724",
"                                                          ",
"                                                          ",
"                      . + + + + + + + + + + + @ #         ",
"                      $ % & & & * & & * & = - ; > ,       ",
"                      ' ) ! ~ { ] ^ / ( _ : < [ } ,       ",
"                      ' | 1 2 3 4 5 6 7 8 9 0 [ } ,       ",
"                      ' | a b c d e f g h i j [ } ,       ",
"                      ' k l m n , , , , o p q r } ,       ",
"                      s t u , , , , , , , , v w } ,       ",
"          x y z A B C D , , E F G H I J K , , L M ,       ",
"          N O O P Q R , , S T U V W X Y Z ` , ,  .,       ",
"        # ....+.@.#., , , $.%.&.*.=.=.-.-.;.>., , ,       ",
",.'.).).!.+.~.{.].^., /.(._._._._._._._._._._.:., ,       ",
",.<.[.[.}.|.1.2.3., , 4.).).).).).).).).).).5.6., ,       ",
"  7.8.9.7.0.a.b.c., , d.e.e.e.e.f.g.h.h.h.h.h.i., , ,     ",
"  j.k.l.k.m.n.b.o., , p.q.r.s.t.u.v.w.[.[.[.[.x., , ,     ",
"  p._.y._.C n.b.o., , z.A.B.C.D.E.F.G.x.x.H.H.I., , ,     ",
"  p._.y._.C n.J.K., , L.M.N.O.P.Q.z J.R.S.T.U.V., , ,     ",
"  p._.y._.C W.. X.Y., Z.`. +.+++@+#+J.$+%+&+*+L , ,       ",
"  p._.y._.=+-+;+>+,+, , '+)+!+~+{+]+^+/+(+_+, , ,         ",
"  p._.}.:+<+[+}+|+1+2+, , 3+4+5+6+7+8+9+0+a+, , , ,       ",
"  b+c+d+k.C e+. f+g+h+i+, , , j+k+l+ .m+, , , , , , ,     ",
"  n+_.[ o+p+).q+r+s+t+u+v+w+, , , , , , , , , , , , , , , ",
"  n+x+y+z+C A+B+F.C+D+E+F+G+H+I+, , ,  .Q J+, , , , , , , ",
"  p.o+K+L+<+M+N+O+P+Q+R+S+T+U+V+W+X+_._.Y+Z+  , , , , , , ",
"  n+`+ @.@<++@@@  #@$@%@&@*@=@-@;@>@,@'@)@      , , , , , ",
"  !@~@{@d+]@^@      /@(@_@:@=@<@[@}@|@1@                  ",
"  2@a+3@@.4@          5@6@7@8@9@0@a@b@                    ",
"                        c@d@e@f@g@                        ",
"                                                          ",
"                                                          ",
"                                                          "};
