/* XPM */
static char * N:\uib\oertel\svnwork\svn_opsi_org\opsi_winst\branches\4_11_6\exit_xpm[] = {
"24 24 12 1",
" 	c None",
".	c #000000",
"+	c #030303",
"@	c #101010",
"#	c #090909",
"$	c #3A3A3A",
"%	c #535353",
"&	c #272727",
"*	c #1D1D1D",
"=	c #303030",
"-	c #515151",
";	c #616161",
"                        ",
"                        ",
"           ...          ",
"           ...          ",
"           ...          ",
"      ..   ...   ..     ",
"     +..@  ...  #..@    ",
"    $#..%  ...  &..*    ",
"    ....   ...   ....   ",
"    ...    ...    ...   ",
"   =..     ...    ...$  ",
"   ...     ...     ...  ",
"   ...     ...     ...  ",
"   ...     ...     ...  ",
"   -...    ...    ...;  ",
"    ...           ...   ",
"    ....         ....   ",
"    ;@...       ...=    ",
"     .....=  %@....     ",
"      @*.........=      ",
"        .........       ",
"          $...;         ",
"                        ",
"                        "};
