/* XPM */
static char * N:\uib\oertel\svnwork\svn_opsi_org\opsi_winst\branches\4_11_6\filter_xpm[] = {
"20 20 76 1",
" 	c None",
".	c #000000",
"+	c #212121",
"@	c #040404",
"#	c #616161",
"$	c #7B7B7B",
"%	c #4E4E4E",
"&	c #989898",
"*	c #717171",
"=	c #848484",
"-	c #B4B4B4",
";	c #D4D4D4",
">	c #DADADA",
",	c #E7E7E7",
"'	c #7A7A7A",
")	c #7E7E7E",
"!	c #131313",
"~	c #727272",
"{	c #767676",
"]	c #A9A9A9",
"^	c #AEAEAE",
"/	c #B9B9B9",
"(	c #BABABA",
"_	c #C6C6C6",
":	c #CCCCCC",
"<	c #D2D2D2",
"[	c #D1D1D1",
"}	c #D3D3D3",
"|	c #C2C2C2",
"1	c #949494",
"2	c #A5A5A5",
"3	c #ACACAC",
"4	c #B7B7B7",
"5	c #C3C3C3",
"6	c #CBCBCB",
"7	c #5F5F5F",
"8	c #B0B0B0",
"9	c #B6B6B6",
"0	c #B3B3B3",
"a	c #CDCDCD",
"b	c #E2E2E2",
"c	c #535353",
"d	c #ADADAD",
"e	c #BDBDBD",
"f	c #BBBBBB",
"g	c #C8C8C8",
"h	c #D9D9D9",
"i	c #C7C7C7",
"j	c #959595",
"k	c #363636",
"l	c #313131",
"m	c #858585",
"n	c #979797",
"o	c #C0C0C0",
"p	c #A4A4A4",
"q	c #3C3C3C",
"r	c #9C9C9C",
"s	c #434343",
"t	c #BEBEBE",
"u	c #CFCFCF",
"v	c #D0D0D0",
"w	c #898989",
"x	c #E1E1E1",
"y	c #C5C5C5",
"z	c #C1C1C1",
"A	c #0B0B0B",
"B	c #161616",
"C	c #090909",
"D	c #C9C9C9",
"E	c #ABABAB",
"F	c #080808",
"G	c #0C0C0C",
"H	c #AAAAAA",
"I	c #070707",
"J	c #595959",
"K	c #4F4F4F",
"                    ",
"     . .......      ",
"   ..+@##    ...    ",
" $..%&*=-;>>,').!   ",
" . ~{]^/(_:<[<}|!%  ",
" . 1233456}[<<<<[.  ",
" ..7890956a<<<<;b.  ",
"  .%c=defg:<hi-jk+  ",
"   ..lmn0o55p&q+@$  ",
"     ...r3%rs+..    ",
"      .tu<v0w.      ",
"       .xvyz.       ",
"        Aa/.        ",
"        Bg9C        ",
"        ADEF        ",
"        GiEF        ",
"        GgHI        ",
"        GJKF        ",
"                    ",
"                    "};
