/* XPM */
static char * N:\uib\oertel\svnwork\svn_opsi_org\opsi_winst\branches\4_11_6\nofilter_xpm[] = {
"20 20 73 1",
" 	c None",
".	c #E60E0E",
"+	c #000000",
"@	c #DE3232",
"#	c #212121",
"$	c #040404",
"%	c #616161",
"&	c #2D0202",
"*	c #7B7B7B",
"=	c #717171",
"-	c #848484",
";	c #B4B4B4",
">	c #D4D4D4",
",	c #DADADA",
"'	c #E7E7E7",
")	c #7A7A7A",
"!	c #7E7E7E",
"~	c #727272",
"{	c #767676",
"]	c #AEAEAE",
"^	c #B9B9B9",
"/	c #BABABA",
"(	c #C6C6C6",
"_	c #CCCCCC",
":	c #D2D2D2",
"<	c #D1D1D1",
"[	c #131313",
"}	c #4E4E4E",
"|	c #949494",
"1	c #A5A5A5",
"2	c #ACACAC",
"3	c #C3C3C3",
"4	c #CBCBCB",
"5	c #D3D3D3",
"6	c #D5ABAB",
"7	c #E03F3F",
"8	c #5F5F5F",
"9	c #B0B0B0",
"0	c #B6B6B6",
"a	c #CC6060",
"b	c #CDCDCD",
"c	c #E2E2E2",
"d	c #535353",
"e	c #ADADAD",
"f	c #E12B2B",
"g	c #E23434",
"h	c #C7C7C7",
"i	c #959595",
"j	c #363636",
"k	c #313131",
"l	c #858585",
"m	c #979797",
"n	c #989898",
"o	c #3C3C3C",
"p	c #720606",
"q	c #890808",
"r	c #D0D0D0",
"s	c #B3B3B3",
"t	c #E1E1E1",
"u	c #C5C5C5",
"v	c #C1C1C1",
"w	c #0B0B0B",
"x	c #161616",
"y	c #C8C8C8",
"z	c #090909",
"A	c #C9C9C9",
"B	c #ABABAB",
"C	c #080808",
"D	c #0C0C0C",
"E	c #AAAAAA",
"F	c #070707",
"G	c #595959",
"H	c #4F4F4F",
"                    ",
" ..  + +++++++  ..  ",
" @..+#$%%    ++&.   ",
" *+...=-;>,,')!..   ",
" + ~{.]^/(_:<...[}  ",
" + |12..345<6.7:<+  ",
" ++890a..4b:..:>c+  ",
"  +}d-e...fg.h;ij#  ",
"   ++klma....no#$*  ",
"     ++p.....#++    ",
"      q..:rs..      ",
"     ...truv+....   ",
"    ... wb^+   ..   ",
"  ...   xy0z    ... ",
"  ..    wABC        ",
"        DhBC        ",
"        DyEF        ",
"        DGHC        ",
"                    ",
"                    "};
