/* XPM */
static char * N:\uib\oertel\svnwork\svn_opsi_org\opsi_winst\branches\4_11_6\reload_xpm[] = {
"20 20 147 2",
"  	c None",
". 	c #17582E",
"+ 	c #517F61",
"@ 	c #5F7C68",
"# 	c #26693D",
"$ 	c #0D4A23",
"% 	c #024218",
"& 	c #749F83",
"* 	c #CFECD8",
"= 	c #87DFA4",
"- 	c #43BD6D",
"; 	c #1E7E3F",
"> 	c #0C5626",
", 	c #052610",
"' 	c #010B04",
") 	c #000000",
"! 	c #2F6E44",
"~ 	c #CFE7D5",
"{ 	c #B5EDC7",
"] 	c #39B865",
"^ 	c #0B6A2C",
"/ 	c #001D09",
"( 	c #010D05",
"_ 	c #011208",
": 	c #000301",
"< 	c #034119",
"[ 	c #BEDDC7",
"} 	c #A5E2B9",
"| 	c #14A546",
"1 	c #066026",
"2 	c #000B03",
"3 	c #011006",
"4 	c #518562",
"5 	c #DBFAE4",
"6 	c #26B256",
"7 	c #148A3C",
"8 	c #000F05",
"9 	c #07401B",
"0 	c #B6D2BF",
"a 	c #79D898",
"b 	c #1DA64E",
"c 	c #04411A",
"d 	c #003709",
"e 	c #C3D6C8",
"f 	c #45BD6E",
"g 	c #10AB47",
"h 	c #001804",
"i 	c #001605",
"j 	c #437955",
"k 	c #759681",
"l 	c #809988",
"m 	c #A3D8B4",
"n 	c #27B457",
"o 	c #109E43",
"p 	c #4A6F57",
"q 	c #6C8975",
"r 	c #659876",
"s 	c #002C10",
"t 	c #333333",
"u 	c #202020",
"v 	c #0E331C",
"w 	c #4BBD6A",
"x 	c #79E79D",
"y 	c #52C778",
"z 	c #0AA541",
"A 	c #18A94A",
"B 	c #79DA95",
"C 	c #66D38A",
"D 	c #18552D",
"E 	c #1E1E1E",
"F 	c #6B6B6B",
"G 	c #7F7F7F",
"H 	c #191919",
"I 	c #00240E",
"J 	c #058232",
"K 	c #1FC25B",
"L 	c #18AF4C",
"M 	c #52D26F",
"N 	c #109C3C",
"O 	c #003712",
"P 	c #010000",
"Q 	c #131313",
"R 	c #6E6E6E",
"S 	c #B1B1B1",
"T 	c #696969",
"U 	c #1A1A1A",
"V 	c #042B12",
"W 	c #0E7D35",
"X 	c #38BF5C",
"Y 	c #199841",
"Z 	c #033C18",
"` 	c #212121",
" .	c #B5B5B5",
"..	c #434343",
"+.	c #2E2E2E",
"@.	c #747474",
"#.	c #1B1B1B",
"$.	c #097A32",
"%.	c #06461D",
"&.	c #313131",
"*.	c #727272",
"=.	c #BEBEBE",
"-.	c #474747",
";.	c #757575",
">.	c #232323",
",.	c #021C0B",
"'.	c #555555",
").	c #3F3F3F",
"!.	c #515151",
"~.	c #383838",
"{.	c #1C1C1C",
"].	c #353535",
"^.	c #272727",
"/.	c #080808",
"(.	c #838383",
"_.	c #282828",
":.	c #494949",
"<.	c #6D6D6D",
"[.	c #848484",
"}.	c #303030",
"|.	c #525252",
"1.	c #3A3A3A",
"2.	c #ABABAB",
"3.	c #595959",
"4.	c #040404",
"5.	c #2B2B2B",
"6.	c #A2A2A2",
"7.	c #8E8E8E",
"8.	c #343434",
"9.	c #4E4E4E",
"0.	c #121212",
"a.	c #171717",
"b.	c #292929",
"c.	c #5B5B5B",
"d.	c #B8B8B8",
"e.	c #919191",
"f.	c #404040",
"g.	c #676767",
"h.	c #050505",
"i.	c #0E0E0E",
"j.	c #3B3B3B",
"k.	c #787878",
"l.	c #B0B0B0",
"m.	c #5E5E5E",
"n.	c #393939",
"o.	c #0A0A0A",
"p.	c #2D2D2D",
"                . + @ # $               ",
"            % & * = - ; > , ' )         ",
"          ! ~ { ] ^ / )     ( _ :       ",
"        < [ } | 1 2             3       ",
"        4 5 6 7 8                 )     ",
"      9 0 a b c )                       ",
"      d e f g h                         ",
"i j k l m n o p q r s     t u           ",
"  v w x y z A B C D )   E F G H         ",
"    I J K L M N O P   Q R S T R U       ",
"      V W X Y Z )   ` R  ...+.R @.#.    ",
"        V $.%.)   &.*.=.-.E E &.;.*.>.  ",
"          ,.)     E '.u ).!.>.~.{.].^./.",
"                        !.(._.:.)       ",
"                        <.[.}.|.)       ",
"    )                 1.2.'.3.`         ",
"      4.            5.6.7.8.9.)         ",
"      ) 0.a.    b.c.d.e.f.g.H           ",
"        h.i.j.k.e.l.3.m.n.)             ",
"              o.Q E p.u                 "};
