/* XPM */
static char * N:\uib\oertel\svnwork\svn_opsi_org\opsi_winst\branches\4_11_6\upfilter_xpm[] = {
"20 20 75 1",
" 	c None",
".	c #000000",
"+	c #212121",
"@	c #040404",
"#	c #616161",
"$	c #7B7B7B",
"%	c #4E4E4E",
"&	c #989898",
"*	c #717171",
"=	c #848484",
"-	c #B4B4B4",
";	c #D4D4D4",
">	c #DADADA",
",	c #E7E7E7",
"'	c #7A7A7A",
")	c #7E7E7E",
"!	c #131313",
"~	c #17D30D",
"{	c #767676",
"]	c #A9A9A9",
"^	c #AEAEAE",
"/	c #B9B9B9",
"(	c #BABABA",
"_	c #C6C6C6",
":	c #CCCCCC",
"<	c #D2D2D2",
"[	c #D1D1D1",
"}	c #D3D3D3",
"|	c #C2C2C2",
"1	c #39C731",
"2	c #61BF5C",
"3	c #ACACAC",
"4	c #B7B7B7",
"5	c #C3C3C3",
"6	c #CBCBCB",
"7	c #3ECB37",
"8	c #65C260",
"9	c #B6B6B6",
"0	c #CDCDCD",
"a	c #E2E2E2",
"b	c #62BF5D",
"c	c #BDBDBD",
"d	c #BBBBBB",
"e	c #C8C8C8",
"f	c #D9D9D9",
"g	c #C7C7C7",
"h	c #959595",
"i	c #363636",
"j	c #1CB314",
"k	c #979797",
"l	c #B3B3B3",
"m	c #C0C0C0",
"n	c #A4A4A4",
"o	c #3C3C3C",
"p	c #109D09",
"q	c #9C9C9C",
"r	c #434343",
"s	c #063803",
"t	c #CFCFCF",
"u	c #D0D0D0",
"v	c #898989",
"w	c #E1E1E1",
"x	c #C5C5C5",
"y	c #C1C1C1",
"z	c #0B0B0B",
"A	c #161616",
"B	c #090909",
"C	c #C9C9C9",
"D	c #ABABAB",
"E	c #080808",
"F	c #0C0C0C",
"G	c #AAAAAA",
"H	c #070707",
"I	c #595959",
"J	c #4F4F4F",
"                    ",
"     . .......      ",
"   ..+@##    ...    ",
" $..%&*=-;>>,').!   ",
" .~~{]^/(_:<[<}|!%  ",
" ~~~123456}[<<<<[.  ",
"~~~~~789560<<<<;a.  ",
"~~~~~~bcde:<fg-hi+  ",
"~ ~~~j~klm55n&o+@$  ",
"~ ~~~.p%q%%qr+..    ",
"  ~~~ s%t<ulv.      ",
"  ~~~  .wuxy.       ",
"  ~~~   z0/.        ",
"  ~~~   Ae9B        ",
"  ~~~   zCDE        ",
"  ~~~   FgDE        ",
"  ~~~   FeGH        ",
"        FIJE        ",
"                    ",
"                    "};
