/* XPM */
static char * N:\uib\oertel\svnwork\svn_opsi_org\opsi_winst\branches\4_11_6\viewmag_xpm[] = {
"20 20 163 2",
"  	c None",
". 	c #6A6A69",
"+ 	c #100F0F",
"@ 	c #252424",
"# 	c #242424",
"$ 	c #1B1B1B",
"% 	c #50504E",
"& 	c #878585",
"* 	c #C6D1D2",
"= 	c #C8DCE2",
"- 	c #CDD8DA",
"; 	c #C6D0D2",
"> 	c #AAABAB",
", 	c #272726",
"' 	c #4E4F4D",
") 	c #CED8D8",
"! 	c #E5F8F8",
"~ 	c #DBF7F8",
"{ 	c #DAF4F8",
"] 	c #CDF1F5",
"^ 	c #C2EDF3",
"/ 	c #D3F6FB",
"( 	c #D7E5E7",
"_ 	c #2B2B2B",
": 	c #CED7D8",
"< 	c #EDFBFB",
"[ 	c #ECFAF9",
"} 	c #DDF4F8",
"| 	c #CCF0F2",
"1 	c #B6EAF1",
"2 	c #A0DCE4",
"3 	c #91D2DE",
"4 	c #C5EDF3",
"5 	c #EEFCFE",
"6 	c #10100F",
"7 	c #696969",
"8 	c #8C8B8B",
"9 	c #E9F8F8",
"0 	c #FAFDFD",
"a 	c #DFF5F9",
"b 	c #C5ECF2",
"c 	c #B3E5EE",
"d 	c #9BDBE8",
"e 	c #82CDD7",
"f 	c #86D0DA",
"g 	c #C7EFF4",
"h 	c #646767",
"i 	c #9A9A9A",
"j 	c #0C0C0C",
"k 	c #C4D2D2",
"l 	c #E1F5F7",
"m 	c #DCF5F7",
"n 	c #DCEEF0",
"o 	c #C3EAF0",
"p 	c #AAE3EC",
"q 	c #8FDAE6",
"r 	c #76CBD7",
"s 	c #66C1CB",
"t 	c #99DDE8",
"u 	c #9DA9AB",
"v 	c #000000",
"w 	c #DCE4E7",
"x 	c #DBF0F4",
"y 	c #C3ECF2",
"z 	c #C7ECF1",
"A 	c #BEEBF1",
"B 	c #A8E3EB",
"C 	c #93DAE7",
"D 	c #85D9E1",
"E 	c #65C1CE",
"F 	c #57B7C2",
"G 	c #9DDBE3",
"H 	c #C9E0E2",
"I 	c #020202",
"J 	c #D9E3E4",
"K 	c #D1EDF1",
"L 	c #B8E9F0",
"M 	c #B5E9EF",
"N 	c #A6E1EB",
"O 	c #94DAE3",
"P 	c #83D7E2",
"Q 	c #69CDDA",
"R 	c #53BCC8",
"S 	c #48ABB3",
"T 	c #85D3DE",
"U 	c #C9E1E5",
"V 	c #141413",
"W 	c #BBC7C7",
"X 	c #C2E9F0",
"Y 	c #90D4DC",
"Z 	c #9ADBE3",
"` 	c #90DBE7",
" .	c #8BD9E3",
"..	c #6ACEDB",
"+.	c #4FBFCB",
"@.	c #44A9B2",
"#.	c #4EA8B3",
"$.	c #96DAE8",
"%.	c #8F9B9D",
"&.	c #101010",
"*.	c #929292",
"=.	c #CDF0F6",
"-.	c #93D7DF",
";.	c #7ECDD8",
">.	c #79CCD7",
",.	c #5BC7D4",
"'.	c #55BDC7",
").	c #44A9B3",
"!.	c #3D9EA6",
"~.	c #60BDCA",
"{.	c #CEF7F8",
"].	c #464645",
"^.	c #292928",
"/.	c #C2CDCF",
"(.	c #87D6DE",
"_.	c #67C1CB",
":.	c #54AEB7",
"<.	c #46A3AD",
"[.	c #48A4AC",
"}.	c #5DBBC6",
"|.	c #AEEAF2",
"1.	c #CCD8DA",
"2.	c #3A3635",
"3.	c #3C3C3C",
"4.	c #BEC7C8",
"5.	c #C7F1F8",
"6.	c #9ADAE3",
"7.	c #83D1DA",
"8.	c #73C6D1",
"9.	c #89D9E3",
"0.	c #CAF8F9",
"a.	c #C9D0D3",
"b.	c #030303",
"c.	c #4BC5C4",
"d.	c #131313",
"e.	c #444545",
"f.	c #A3AFAE",
"g.	c #C7DFE2",
"h.	c #C1DEE2",
"i.	c #989EA1",
"j.	c #414040",
"k.	c #3B3838",
"l.	c #2B7F7F",
"m.	c #0AB9B8",
"n.	c #BEBDBD",
"o.	c #191919",
"p.	c #9C9C9C",
"q.	c #060606",
"r.	c #3F3C3B",
"s.	c #535352",
"t.	c #E3E3E3",
"u.	c #545453",
"v.	c #B8B8B9",
"w.	c #363637",
"x.	c #535351",
"y.	c #181818",
"z.	c #3B3B3A",
"A.	c #C9C9C9",
"B.	c #393939",
"C.	c #555453",
"D.	c #B6BABA",
"E.	c #383838",
"F.	c #40403F",
"        . + @ # $                       ",
"      % & * = - ; > ,                   ",
"    ' ) ! ~ { ] ^ / ( _                 ",
"  % : < [ } | 1 2 3 4 5 6               ",
"7 8 9 [ 0 a b c d e f g h i             ",
"j k l } m n o p q r s t u v             ",
"# w x y z A B C D E F G H I             ",
"# J K L M N O P Q R S T U I             ",
"V W X Y Z `  ...+.@.#.$.%.&.            ",
"  *.=.-.;.>.,.'.).!.~.{.].              ",
"  ^./.^ (._.:.<.[.}.|.1.2.              ",
"    3.4.5.6.7.8.9.0.a.b.c.v             ",
"      d.e.f.g.h.i.j.k.l.m.n.o.          ",
"        p.v v v q.    v r.s.t.v         ",
"                        b.3.u.v.v       ",
"                          v w.x.t.y.    ",
"                            v z.x.A.v   ",
"                              b.B.C.D.  ",
"                                v E.F.  ",
"                                        "};
